Coordinates
version=1
nRows=60
nColumns=12
inDegrees=yes

Units are S.I. units (second, meters, Newtons, ...)
Angles are in degrees

endheader
time	SC_y	SC_z	SC_x	AC_y	AC_z	AC_x	GH_y	GH_z	GH_yy	EL_x	PS_y
       0.0              -45.82        -0.2194          81.19          59.82         -11.16           15.7          14.06          42.06          142.0          20.93          129.0
   0.02924              -45.82        -0.2166          81.18          59.83         -11.16           15.7          14.04          42.06          142.0          20.94          129.0
   0.05848              -45.82        -0.2137          81.16          59.83         -11.16           15.7          14.03          42.07          142.0          20.94          129.0
   0.08773              -45.81        -0.2105          81.15          59.83         -11.16           15.7          14.02          42.07          142.0          20.95          129.0
     0.117              -45.81        -0.2072          81.14          59.83         -11.16           15.7           14.0          42.07          141.9          20.96          129.0
    0.1462              -45.81        -0.2036          81.13          59.83         -11.16          15.69          13.99          42.07          141.9          20.96          129.0
    0.1755               -45.8        -0.1998          81.11          59.83         -11.16          15.69          13.97          42.07          141.9          20.97          129.0
    0.2047               -45.8        -0.1958           81.1          59.83         -11.15          15.69          13.95          42.07          141.8          20.98          129.0
    0.2339              -45.79        -0.1914          81.08          59.83         -11.15          15.69          13.93          42.07          141.8          20.98          129.0
    0.2632              -45.79        -0.1867          81.06          59.84         -11.15          15.68          13.91          42.08          141.8          20.99          129.0
    0.2924              -45.78        -0.1817          81.05          59.84         -11.15          15.68          13.89          42.08          141.7           21.0          128.9
    0.3217              -45.77        -0.1763          81.02          59.84         -11.15          15.68          13.87          42.08          141.7          21.01          128.9
    0.3509              -45.77        -0.1705           81.0          59.84         -11.15          15.67          13.84          42.08          141.6          21.02          128.9
    0.3802              -45.76        -0.1642          80.98          59.84         -11.14          15.67          13.81          42.08          141.6          21.03          128.9
    0.4094              -45.75        -0.1573          80.95          59.85         -11.14          15.66          13.78          42.09          141.5          21.05          128.9
    0.4386              -45.74          -0.15          80.93          59.85         -11.14          15.66          13.75          42.09          141.5          21.06          128.9
    0.4679              -45.74        -0.1419           80.9          59.85         -11.14          15.65          13.71          42.09          141.4          21.07          128.9
    0.4971              -45.73        -0.1332          80.86          59.86         -11.13          15.65          13.67          42.09          141.3          21.09          128.8
    0.5264              -45.71        -0.1236          80.83          59.86         -11.13          15.64          13.63           42.1          141.3          21.11          128.8
    0.5556               -45.7        -0.1132          80.79          59.86         -11.13          15.63          13.59           42.1          141.2          21.13          128.8
    0.5848              -45.69        -0.1017          80.75          59.87         -11.12          15.63          13.53          42.11          141.1          21.15          128.8
    0.6141              -45.67       -0.08904           80.7          59.87         -11.12          15.62          13.48          42.11          141.0          21.17          128.7
    0.6433              -45.66       -0.07508          80.65          59.88         -11.11          15.61          13.42          42.12          140.9           21.2          128.7
    0.6726              -45.64       -0.05961          80.59          59.88         -11.11           15.6          13.35          42.12          140.7          21.22          128.7
    0.7018              -45.62       -0.04242          80.53          59.89          -11.1          15.59          13.27          42.13          140.6          21.25          128.6
    0.7311               -45.6       -0.02323          80.45          59.89          -11.1          15.58          13.19          42.14          140.4          21.29          128.6
    0.7603              -45.57      -0.001735          80.37           59.9         -11.09          15.56          13.09          42.14          140.3          21.33          128.5
    0.7895              -45.55        0.02245          80.28          59.91         -11.08          15.55          12.98          42.15          140.1          21.37          128.5
    0.8188              -45.51        0.04977          80.18          59.92         -11.07          15.53          12.86          42.16          139.9          21.42          128.4
     0.848              -45.48        0.08079          80.07          59.93         -11.06          15.51          12.72          42.17          139.6          21.48          128.3
    0.8773              -45.44         0.1162          79.93          59.94         -11.05          15.48          12.57          42.19          139.3          21.54          128.3
    0.9065              -45.39         0.1568          79.78          59.96         -11.03          15.46          12.39           42.2          139.0          21.62          128.2
    0.9358              -45.34         0.2037          79.61          59.97         -11.02          15.43          12.18          42.22          138.6           21.7          128.1
     0.965              -45.27         0.2583          79.41          59.99          -11.0          15.39          11.94          42.24          138.2           21.8          127.9
    0.9942               -45.2          0.322          79.17          60.01         -10.98          15.35          11.65          42.26          137.6          21.92          127.8
     1.023              -45.11         0.3972          78.89          60.04         -10.95           15.3          11.32          42.29          137.0          22.05          127.6
     1.053              -45.01         0.4866          78.55          60.07         -10.92          15.24          10.92          42.32          136.3          22.21          127.4
     1.082              -44.89         0.5937          78.15          60.11         -10.88          15.17          10.45          42.36          135.4          22.41          127.2
     1.111              -44.74         0.7233          77.67          60.15         -10.84          15.09           9.87          42.41          134.4          22.64          126.9
      1.14              -44.55         0.8816          77.08          60.21         -10.79          14.98          9.167          42.47          133.1          22.93          126.5
      1.17              -44.33          1.077          76.35          60.28         -10.72          14.86            8.3          42.54          131.5          23.28          126.1
     1.199              -44.05          1.321          75.45          60.36         -10.64           14.7          7.218          42.63          129.6          23.73          125.5
     1.228              -43.69          1.627           74.3          60.47         -10.53           14.5          5.855          42.74          127.1          24.28          124.8
     1.257              -43.24          2.018          72.85          60.61          -10.4          14.24          4.122          42.88          123.9          24.99          123.9
     1.287              -42.67          2.517          70.99          60.78         -10.23          13.91          1.905          43.07          119.9           25.9          122.8
     1.316              -41.93          3.158           68.6          61.01         -10.01           13.5         -0.941           43.3          114.7          27.06          121.3
     1.345              -40.98          3.976          65.55          61.29         -9.728          12.96         -4.576           43.6          108.0          28.54          119.5
     1.374              -39.79          5.006          61.71          61.65         -9.376          12.29         -9.147          43.98          99.69          30.41          117.1
     1.404              -38.34           6.26          57.04          62.09         -8.947          11.47         -14.72          44.44          89.52          32.68          114.2
     1.433              -36.67          7.714          51.62           62.6          -8.45          10.52         -21.17          44.97          77.74          35.32          110.9
     1.462              -34.85          9.288          45.75          63.15         -7.912          9.488         -28.16          45.55          64.98          38.18          107.3
     1.491              -33.03          10.86          39.88           63.7         -7.373          8.459         -35.16          46.12          52.22          41.03          103.7
     1.521              -31.35          12.32          34.46          64.21         -6.876          7.508         -41.61          46.66          40.43          43.67          100.4
      1.55               -29.9          13.57          29.79          64.64         -6.448          6.689         -47.18          47.12          30.26          45.94          97.54
     1.579              -28.72           14.6          25.95           65.0         -6.096          6.016         -51.75          47.49          21.92          47.81          95.19
     1.608              -27.77          15.42           22.9          65.29         -5.816          5.481         -55.39          47.79          15.29          49.29          93.32
     1.638              -27.03          16.06          20.51          65.51         -5.597          5.062         -58.23          48.03          10.09          50.46          91.86
     1.667              -26.45          16.56          18.65          65.69         -5.426          4.735         -60.45          48.21          6.046          51.36          90.72
     1.696               -26.0          16.95           17.2          65.83         -5.293           4.48         -62.18          48.35          2.883          52.07          89.83
     1.725              -25.65          17.25          16.05          65.93         -5.188          4.279         -63.55          48.47         0.3957          52.63          89.13
